<svg width="150" height="21" viewBox="0 0 150 21" fill="none" xmlns="http://www.w3.org/2000/svg">
    <!-- S -->
    <path d="M6.99195 16.5206C4.64709 16.5206 2.91331 16.1014 1.79062 15.2629C0.966279 14.6473 0.425421 13.775 0.168048 12.646C0.00563765 11.9335 0.608191 11.3193 1.33889 11.3193C2.0226 11.3193 2.54516 11.8749 2.80374 12.5078C2.98936 12.9621 3.27696 13.3192 3.66651 13.5789C4.36287 14.0194 5.49266 14.2397 7.05591 14.2397C9.71342 14.2397 11.0422 13.4794 11.0422 11.9588C11.0422 11.3761 10.8574 10.9214 10.4879 10.5945C10.1184 10.2677 9.52867 10.0474 8.71863 9.93369L4.56182 9.29418C3.14069 9.08101 2.10327 8.66889 1.44955 8.0578C0.795832 7.4325 0.468972 6.5514 0.468972 5.4145C0.468972 3.99337 1.009 2.91332 2.08906 2.17433C3.16912 1.43534 4.74657 1.06585 6.82142 1.06585C8.9389 1.06585 10.5235 1.44955 11.5751 2.21696C12.3006 2.73661 12.8131 3.46935 13.1125 4.41517C13.3445 5.14815 12.7223 5.81952 11.9535 5.81952C11.2891 5.81952 10.7791 5.28908 10.4587 4.70702C10.2759 4.37506 10.0227 4.1135 9.69921 3.92232C9.08812 3.53861 8.12175 3.34676 6.8001 3.34676C4.32734 3.34676 3.09096 4.01469 3.09096 5.35055C3.09096 6.24586 3.85126 6.81431 5.37187 7.05591L9.4434 7.6741C10.893 7.90148 11.9588 8.36335 12.6409 9.0597C13.3373 9.74184 13.6855 10.6869 13.6855 11.8948C13.6855 13.387 13.1099 14.531 11.9588 15.3269C10.8219 16.1227 9.16628 16.5206 6.99195 16.5206Z" fill="black"/>

    <!-- a -->
    <path d="M21.5 16.5206C19.44 16.5206 17.934 16.0445 16.98 15.0924C16.026 14.1402 15.549 12.6409 15.549 10.5945C15.549 8.54809 16.026 7.05591 16.98 6.11796C17.934 5.1658 19.44 4.68973 21.5 4.68973C23.224 4.68973 24.58 5.01659 25.568 5.67031V6.33113C25.568 5.6012 26.16 5.00948 26.89 5.00948C27.62 5.00948 28.212 5.6012 28.212 6.33113V14.8792C28.212 15.6091 27.62 16.2009 26.89 16.2009C26.16 16.2009 25.568 15.6091 25.568 14.8792V14.282C24.58 15.8603 23.224 16.5206 21.5 16.5206ZM22 14.3463C23.52 14.3463 24.586 14.0692 25.197 13.5149C25.822 12.9323 26.135 11.9588 26.135 10.5945C26.135 9.24444 25.822 8.29229 25.197 7.73805C24.586 7.1696 23.52 6.88537 22 6.88537C20.465 6.88537 19.378 7.1696 18.739 7.73805C18.114 8.29229 17.801 9.24444 17.801 10.5945C17.801 11.9588 18.114 12.9323 18.739 13.5149C19.378 14.0692 20.465 14.3463 22 14.3463Z" fill="black"/>

    <!-- k -->
    <path d="M34.8 16.2009C34.07 16.2009 33.478 15.6091 33.478 14.8792V1.32165C33.478 0.591723 34.07 0 34.8 0C35.53 0 36.122 0.591723 36.122 1.32165V8.5L41.5 5.43C41.95 5.15 42.52 5.15 42.97 5.43C43.42 5.71 43.7 6.23 43.7 6.78V7.22C43.7 7.77 43.42 8.29 42.97 8.57L38.8 10.9L43.5 14.45C43.98 14.76 44.28 15.31 44.28 15.9C44.28 16.49 43.98 17.04 43.5 17.35C43.02 17.66 42.38 17.66 41.9 17.35L36.122 13.2V14.8792C36.122 15.6091 35.53 16.2009 34.8 16.2009Z" fill="black"/>

    <!-- t -->
    <path d="M53.5 16.5206C51.84 16.5206 50.66 16.1654 49.96 15.455C49.26 14.7445 48.91 13.6076 48.91 12.0442V7.5H47.5C46.77 7.5 46.178 6.90828 46.178 6.17835C46.178 5.44842 46.77 4.8567 47.5 4.8567H48.91V2.5C48.91 1.77007 49.502 1.17835 50.232 1.17835C50.962 1.17835 51.554 1.77007 51.554 2.5V4.8567H54.5C55.23 4.8567 55.822 5.44842 55.822 6.17835C55.822 6.90828 55.23 7.5 54.5 7.5H51.554V11.98C51.554 13.19 51.788 13.995 52.256 14.395C52.724 14.795 53.554 14.995 54.746 14.995H55.5C56.23 14.995 56.822 15.5867 56.822 16.3167C56.822 17.0466 56.23 17.6383 55.5 17.6383H54.246C53.994 17.6383 53.744 17.5953 53.5 17.5206V16.5206Z" fill="black"/>

    <!-- o -->
    <path d="M63.5 16.5206C61.44 16.5206 59.934 16.0445 58.98 15.0924C58.026 14.1402 57.549 12.6409 57.549 10.5945C57.549 8.54809 58.026 7.05591 58.98 6.11796C59.934 5.1658 61.44 4.68973 63.5 4.68973C65.56 4.68973 67.066 5.1658 68.02 6.11796C68.974 7.05591 69.451 8.54809 69.451 10.5945C69.451 12.6409 68.974 14.1402 68.02 15.0924C67.066 16.0445 65.56 16.5206 63.5 16.5206ZM63.5 14.3463C65.02 14.3463 66.086 14.0692 66.697 13.5149C67.322 12.9323 67.635 11.9588 67.635 10.5945C67.635 9.24444 67.322 8.29229 66.697 7.73805C66.086 7.1696 65.02 6.88537 63.5 6.88537C61.965 6.88537 60.878 7.1696 60.239 7.73805C59.614 8.29229 59.301 9.24444 59.301 10.5945C59.301 11.9588 59.614 12.9323 60.239 13.5149C60.878 14.0692 61.965 14.3463 63.5 14.3463Z" fill="black"/>

    <!-- S -->
    <path d="M78.992 16.5206C76.647 16.5206 74.913 16.1014 73.791 15.2629C72.966 14.6473 72.425 13.775 72.168 12.646C72.006 11.9335 72.608 11.3193 73.339 11.3193C74.023 11.3193 74.545 11.8749 74.804 12.5078C74.989 12.9621 75.277 13.3192 75.667 13.5789C76.363 14.0194 77.493 14.2397 79.056 14.2397C81.713 14.2397 83.042 13.4794 83.042 11.9588C83.042 11.3761 82.857 10.9214 82.488 10.5945C82.118 10.2677 81.529 10.0474 80.719 9.93369L76.562 9.29418C75.141 9.08101 74.103 8.66889 73.45 8.0578C72.796 7.4325 72.469 6.5514 72.469 5.4145C72.469 3.99337 73.009 2.91332 74.089 2.17433C75.169 1.43534 76.747 1.06585 78.821 1.06585C80.939 1.06585 82.524 1.44955 83.575 2.21696C84.301 2.73661 84.813 3.46935 85.113 4.41517C85.345 5.14815 84.722 5.81952 83.954 5.81952C83.289 5.81952 82.779 5.28908 82.459 4.70702C82.276 4.37506 82.023 4.1135 81.699 3.92232C81.088 3.53861 80.122 3.34676 78.8 3.34676C76.327 3.34676 75.091 4.01469 75.091 5.35055C75.091 6.24586 75.851 6.81431 77.372 7.05591L81.443 7.6741C82.893 7.90148 83.959 8.36335 84.641 9.0597C85.337 9.74184 85.686 10.6869 85.686 11.8948C85.686 13.387 85.11 14.531 83.959 15.3269C82.822 16.1227 81.166 16.5206 78.992 16.5206Z" fill="black"/>

    <!-- p -->
    <path d="M94.47 16.5206C92.41 16.5206 90.904 16.0445 89.95 15.0924C88.996 14.1402 88.519 12.6409 88.519 10.5945C88.519 8.54809 88.996 7.05591 89.95 6.11796C90.904 5.1658 92.41 4.68973 94.47 4.68973C96.194 4.68973 97.55 5.01659 98.538 5.67031V6.33113C98.538 5.6012 99.13 5.00948 99.86 5.00948C100.59 5.00948 101.182 5.6012 101.182 6.33113V19.5689C101.182 20.2989 100.59 20.8906 99.86 20.8906C99.13 20.8906 98.538 20.2989 98.538 19.5689V14.282C97.55 15.8603 96.194 16.5206 94.47 16.5206ZM94.97 14.3463C96.49 14.3463 97.556 14.0692 98.167 13.5149C98.792 12.9323 99.105 11.9588 99.105 10.5945C99.105 9.24444 98.792 8.29229 98.167 7.73805C97.556 7.1696 96.49 6.88537 94.97 6.88537C93.435 6.88537 92.348 7.1696 91.709 7.73805C91.084 8.29229 90.771 9.24444 90.771 10.5945C90.771 11.9588 91.084 12.9323 91.709 13.5149C92.348 14.0692 93.435 14.3463 94.97 14.3463Z" fill="black"/>

    <!-- a -->
    <path d="M109.5 16.5206C107.44 16.5206 105.934 16.0445 104.98 15.0924C104.026 14.1402 103.549 12.6409 103.549 10.5945C103.549 8.54809 104.026 7.05591 104.98 6.11796C105.934 5.1658 107.44 4.68973 109.5 4.68973C111.224 4.68973 112.58 5.01659 113.568 5.67031V6.33113C113.568 5.6012 114.16 5.00948 114.89 5.00948C115.62 5.00948 116.212 5.6012 116.212 6.33113V14.8792C116.212 15.6091 115.62 16.2009 114.89 16.2009C114.16 16.2009 113.568 15.6091 113.568 14.8792V14.282C112.58 15.8603 111.224 16.5206 109.5 16.5206ZM110 14.3463C111.52 14.3463 112.586 14.0692 113.197 13.5149C113.822 12.9323 114.135 11.9588 114.135 10.5945C114.135 9.24444 113.822 8.29229 113.197 7.73805C112.586 7.1696 111.52 6.88537 110 6.88537C108.465 6.88537 107.378 7.1696 106.739 7.73805C106.114 8.29229 105.801 9.24444 105.801 10.5945C105.801 11.9588 106.114 12.9323 106.739 13.5149C107.378 14.0692 108.465 14.3463 110 14.3463Z" fill="black"/>

    <!-- c -->
    <path d="M124.5 16.5206C122.44 16.5206 120.934 16.0445 119.98 15.0924C119.026 14.1402 118.549 12.6409 118.549 10.5945C118.549 8.54809 119.026 7.05591 119.98 6.11796C120.934 5.1658 122.44 4.68973 124.5 4.68973C126.424 4.68973 127.93 5.15869 128.918 6.09664C129.42 6.55851 129.671 7.21223 129.671 8.05778C129.671 8.78771 129.079 9.37943 128.349 9.37943C127.751 9.37943 127.251 8.99572 126.849 8.22831C126.566 7.69407 126.155 7.32458 125.616 7.11985C125.091 6.92799 124.38 6.83206 123.482 6.83206C122.005 6.83206 120.924 7.11129 120.239 7.66974C119.568 8.22819 119.232 9.20892 119.232 10.6119C119.232 11.9872 119.568 12.968 120.239 13.5542C120.924 14.1261 122.005 14.4121 123.482 14.4121C124.38 14.4121 125.091 14.3161 125.616 14.1243C126.155 13.9182 126.566 13.5487 126.849 13.0156C127.251 12.2482 127.751 11.8645 128.349 11.8645C129.079 11.8645 129.671 12.4562 129.671 13.1862C129.671 14.0317 129.42 14.6855 128.918 15.1473C127.93 16.0852 126.424 16.5206 124.5 16.5206Z" fill="black"/>

    <!-- e -->
    <path d="M137.5 16.5206C135.44 16.5206 133.934 16.0445 132.98 15.0924C132.026 14.1402 131.549 12.6409 131.549 10.5945C131.549 8.54809 132.026 7.05591 132.98 6.11796C133.934 5.1658 135.44 4.68973 137.5 4.68973C139.424 4.68973 140.968 5.1658 142.132 6.11796C143.31 7.05591 143.899 8.40596 143.899 10.1682C143.899 10.8982 143.307 11.4899 142.577 11.4899H134.3C134.386 12.4775 134.771 13.214 135.455 13.6995C136.154 14.1708 137.194 14.4065 138.575 14.4065C139.43 14.4065 140.141 14.3161 140.709 14.1354C141.291 13.9404 141.759 13.6259 142.113 13.1918C142.543 12.6788 143.043 12.4223 143.613 12.4223C144.343 12.4223 144.935 13.014 144.935 13.744C144.935 14.3739 144.684 14.9562 144.182 15.491C143.109 16.0852 141.539 16.5206 137.5 16.5206ZM141.255 9.5C141.155 8.59758 140.798 7.91544 140.185 7.45358C139.574 6.97751 138.678 6.73948 137.5 6.73948C136.308 6.73948 135.398 6.97751 134.773 7.45358C134.16 7.91544 133.803 8.59758 133.703 9.5H141.255Z" fill="black"/>
</svg>