<svg xmlns="http://www.w3.org/2000/svg" xmlns:xlink="http://www.w3.org/1999/xlink" width="1291" zoomAndPan="magnify" viewBox="0 0 968.25 148.499996" height="198" preserveAspectRatio="xMidYMid meet" version="1.0"><defs><g/><clipPath id="f55a8cf7fb"><path d="M 1.25 0 L 966.25 0 L 966.25 148 L 1.25 148 Z M 1.25 0 " clip-rule="nonzero"/></clipPath><clipPath id="c42eab616b"><rect x="0" width="966" y="0" height="148"/></clipPath></defs><g clip-path="url(#f55a8cf7fb)"><g transform="matrix(1, 0, 0, 1, 1, 0)"><g clip-path="url(#c42eab616b)"><g fill="#1800ad" fill-opacity="1"><g transform="translate(-2.801374, 136.225561)"><g><path d="M 5.90625 0 L 5.90625 -133.46875 L 59.359375 -133.46875 L 59.359375 -107.515625 L 32.78125 -107.515625 L 32.78125 -86.234375 L 57.953125 -86.234375 L 57.953125 -60.59375 L 32.78125 -60.59375 L 32.78125 0 Z M 5.90625 0 "/></g></g></g><g fill="#1800ad" fill-opacity="1"><g transform="translate(60.123, 136.225561)"><g><path d="M 36.984375 1.25 C 27.242188 1.25 19.445312 -1.804688 13.59375 -7.921875 C 7.738281 -14.035156 4.8125 -22.425781 4.8125 -33.09375 L 4.8125 -94.625 C 4.8125 -107.882812 7.453125 -117.878906 12.734375 -124.609375 C 18.023438 -131.335938 26.3125 -134.703125 37.59375 -134.703125 C 47.4375 -134.703125 55.363281 -132.007812 61.375 -126.625 C 67.382812 -121.238281 70.390625 -113.472656 70.390625 -103.328125 L 70.390625 -80.328125 L 43.8125 -80.328125 L 43.8125 -100.0625 C 43.8125 -103.894531 43.34375 -106.535156 42.40625 -107.984375 C 41.476562 -109.429688 39.875 -110.15625 37.59375 -110.15625 C 35.21875 -110.15625 33.585938 -109.328125 32.703125 -107.671875 C 31.828125 -106.015625 31.390625 -103.582031 31.390625 -100.375 L 31.390625 -33.40625 C 31.390625 -29.882812 31.90625 -27.320312 32.9375 -25.71875 C 33.976562 -24.113281 35.53125 -23.3125 37.59375 -23.3125 C 41.738281 -23.3125 43.8125 -26.675781 43.8125 -33.40625 L 43.8125 -57.484375 L 70.703125 -57.484375 L 70.703125 -32.3125 C 70.703125 -9.9375 59.460938 1.25 36.984375 1.25 Z M 36.984375 1.25 "/></g></g></g><g fill="#000000" fill-opacity="1"><g transform="translate(134.702529, 136.225561)"><g/></g></g><g fill="#000000" fill-opacity="1"><g transform="translate(171.991043, 136.225561)"><g><path d="M 5.90625 0 L 5.90625 -133.46875 L 32.46875 -133.46875 L 32.46875 -85.765625 L 45.0625 -85.765625 L 45.0625 -133.46875 L 71.625 -133.46875 L 71.625 0 L 45.0625 0 L 45.0625 -60.59375 L 32.46875 -60.59375 L 32.46875 0 Z M 5.90625 0 "/></g></g></g><g fill="#000000" fill-opacity="1"><g transform="translate(250.452307, 136.225561)"><g><path d="M 37.75 1.25 C 26.976562 1.25 18.796875 -2.035156 13.203125 -8.609375 C 7.609375 -15.191406 4.8125 -24.441406 4.8125 -36.359375 L 4.8125 -99.90625 C 4.8125 -111.40625 7.609375 -120.078125 13.203125 -125.921875 C 18.796875 -131.773438 26.976562 -134.703125 37.75 -134.703125 C 48.53125 -134.703125 56.71875 -131.773438 62.3125 -125.921875 C 67.90625 -120.078125 70.703125 -111.40625 70.703125 -99.90625 L 70.703125 -36.359375 C 70.703125 -24.335938 67.90625 -15.0625 62.3125 -8.53125 C 56.71875 -2.007812 48.53125 1.25 37.75 1.25 Z M 37.75 -23.3125 C 40.132812 -23.3125 41.738281 -24.34375 42.5625 -26.40625 C 43.394531 -28.476562 43.8125 -31.378906 43.8125 -35.109375 L 43.8125 -100.375 C 43.8125 -103.269531 43.421875 -105.625 42.640625 -107.4375 C 41.867188 -109.25 40.289062 -110.15625 37.90625 -110.15625 C 33.457031 -110.15625 31.234375 -106.789062 31.234375 -100.0625 L 31.234375 -34.953125 C 31.234375 -31.117188 31.695312 -28.21875 32.625 -26.25 C 33.5625 -24.289062 35.269531 -23.3125 37.75 -23.3125 Z M 37.75 -23.3125 "/></g></g></g><g fill="#000000" fill-opacity="1"><g transform="translate(326.893779, 136.225561)"><g><path d="M 5.90625 0 L 5.90625 -133.46875 L 46.609375 -133.46875 L 57.796875 -52.046875 L 68.984375 -133.46875 L 110 -133.46875 L 110 0 L 85.609375 0 L 85.609375 -96.171875 L 70.234375 0 L 46.296875 0 L 29.984375 -96.171875 L 29.984375 0 Z M 5.90625 0 "/></g></g></g><g fill="#000000" fill-opacity="1"><g transform="translate(443.731111, 136.225561)"><g><path d="M 5.90625 0 L 5.90625 -133.46875 L 59.359375 -133.46875 L 59.359375 -107.671875 L 33.09375 -107.671875 L 33.09375 -81.734375 L 58.265625 -81.734375 L 58.265625 -56.5625 L 33.09375 -56.5625 L 33.09375 -25.953125 L 61.0625 -25.953125 L 61.0625 0 Z M 5.90625 0 "/></g></g></g><g fill="#000000" fill-opacity="1"><g transform="translate(508.675304, 136.225561)"><g/></g></g><g fill="#000000" fill-opacity="1"><g transform="translate(545.963809, 136.225561)"><g><path d="M 36.984375 1.25 C 27.242188 1.25 19.445312 -1.804688 13.59375 -7.921875 C 7.738281 -14.035156 4.8125 -22.425781 4.8125 -33.09375 L 4.8125 -94.625 C 4.8125 -107.882812 7.453125 -117.878906 12.734375 -124.609375 C 18.023438 -131.335938 26.3125 -134.703125 37.59375 -134.703125 C 47.4375 -134.703125 55.363281 -132.007812 61.375 -126.625 C 67.382812 -121.238281 70.390625 -113.472656 70.390625 -103.328125 L 70.390625 -80.328125 L 43.8125 -80.328125 L 43.8125 -100.0625 C 43.8125 -103.894531 43.34375 -106.535156 42.40625 -107.984375 C 41.476562 -109.429688 39.875 -110.15625 37.59375 -110.15625 C 35.21875 -110.15625 33.585938 -109.328125 32.703125 -107.671875 C 31.828125 -106.015625 31.390625 -103.582031 31.390625 -100.375 L 31.390625 -33.40625 C 31.390625 -29.882812 31.90625 -27.320312 32.9375 -25.71875 C 33.976562 -24.113281 35.53125 -23.3125 37.59375 -23.3125 C 41.738281 -23.3125 43.8125 -26.675781 43.8125 -33.40625 L 43.8125 -57.484375 L 70.703125 -57.484375 L 70.703125 -32.3125 C 70.703125 -9.9375 59.460938 1.25 36.984375 1.25 Z M 36.984375 1.25 "/></g></g></g><g fill="#000000" fill-opacity="1"><g transform="translate(620.540856, 136.225561)"><g><path d="M 5.90625 0 L 5.90625 -133.46875 L 59.359375 -133.46875 L 59.359375 -107.671875 L 33.09375 -107.671875 L 33.09375 -81.734375 L 58.265625 -81.734375 L 58.265625 -56.5625 L 33.09375 -56.5625 L 33.09375 -25.953125 L 61.0625 -25.953125 L 61.0625 0 Z M 5.90625 0 "/></g></g></g><g fill="#000000" fill-opacity="1"><g transform="translate(685.485048, 136.225561)"><g><path d="M 5.90625 0 L 5.90625 -133.46875 L 33.40625 -133.46875 L 45.6875 -69.609375 L 45.6875 -133.46875 L 71.46875 -133.46875 L 71.46875 0 L 45.375 0 L 32 -66.8125 L 32 0 Z M 5.90625 0 "/></g></g></g><g fill="#000000" fill-opacity="1"><g transform="translate(763.790962, 136.225561)"><g><path d="M 17.40625 0 L 17.40625 -107.828125 L 1.546875 -107.828125 L 1.546875 -133.46875 L 59.96875 -133.46875 L 59.96875 -107.828125 L 44.125 -107.828125 L 44.125 0 Z M 17.40625 0 "/></g></g></g><g fill="#000000" fill-opacity="1"><g transform="translate(826.249196, 136.225561)"><g><path d="M 5.90625 0 L 5.90625 -133.46875 L 59.359375 -133.46875 L 59.359375 -107.671875 L 33.09375 -107.671875 L 33.09375 -81.734375 L 58.265625 -81.734375 L 58.265625 -56.5625 L 33.09375 -56.5625 L 33.09375 -25.953125 L 61.0625 -25.953125 L 61.0625 0 Z M 5.90625 0 "/></g></g></g><g fill="#000000" fill-opacity="1"><g transform="translate(891.193388, 136.225561)"><g><path d="M 5.90625 -133.46875 L 46.921875 -133.46875 C 53.453125 -133.46875 58.503906 -131.988281 62.078125 -129.03125 C 65.648438 -126.082031 68.054688 -121.941406 69.296875 -116.609375 C 70.535156 -111.273438 71.15625 -104.460938 71.15625 -96.171875 C 71.15625 -88.609375 70.171875 -82.703125 68.203125 -78.453125 C 66.234375 -74.210938 62.816406 -71.265625 57.953125 -69.609375 C 61.992188 -68.773438 64.921875 -66.753906 66.734375 -63.546875 C 68.546875 -60.335938 69.453125 -55.988281 69.453125 -50.5 L 69.140625 0 L 43.03125 0 L 43.03125 -52.203125 C 43.03125 -55.929688 42.304688 -58.3125 40.859375 -59.34375 C 39.410156 -60.382812 36.769531 -60.90625 32.9375 -60.90625 L 32.9375 0 L 5.90625 0 Z M 39.46875 -84.0625 C 43.195312 -84.0625 45.0625 -88.097656 45.0625 -96.171875 C 45.0625 -99.691406 44.90625 -102.332031 44.59375 -104.09375 C 44.28125 -105.863281 43.707031 -107.082031 42.875 -107.75 C 42.050781 -108.425781 40.863281 -108.765625 39.3125 -108.765625 L 33.09375 -108.765625 L 33.09375 -84.0625 Z M 39.46875 -84.0625 "/></g></g></g></g></g></g></svg>