<?xml version="1.0" ?><!DOCTYPE svg  PUBLIC '-//W3C//DTD SVG 1.1//EN'  'http://www.w3.org/Graphics/SVG/1.1/DTD/svg11.dtd'><!-- Uploaded to: SVG Repo, www.svgrepo.com, Generator: SVG Repo Mixer Tools -->
<svg fill="#000000" width="800px" height="800px" viewBox="0 0 512 512" enable-background="new 0 0 512 512" id="light_x5F_lamp_1_" version="1.1" xml:space="preserve" xmlns="http://www.w3.org/2000/svg" xmlns:xlink="http://www.w3.org/1999/xlink"><path d="M367.34,281.729L341.32,60.652c-0.816-8.235-7.672-14.445-15.948-14.445H187.934  c-8.235,0-15.087,6.176-15.933,14.298l-27.335,221.211c-0.469,4.507,1.001,9.023,4.036,12.39c3.035,3.366,7.374,5.297,11.906,5.297  h46.817v41.568c-6.071,1.6-10.567,7.121-10.567,13.687c0,7.812,6.355,14.167,14.167,14.167c7.812,0,14.167-6.355,14.167-14.167  c0-6.565-4.497-12.087-10.567-13.687v-41.568H243v110.51h-68.511c-6.84,0-12.405,5.564-12.405,12.405v31.071  c0,6.84,5.564,12.404,12.405,12.404h162.958c6.841,0,12.406-5.564,12.406-12.404v-31.071c0-6.841-5.565-12.405-12.406-12.405  h-68.521v-110.51h82.472c4.517,0,8.847-1.92,11.879-5.269C366.31,290.787,367.793,286.288,367.34,281.729z M217.992,354.657  c0,3.842-3.125,6.968-6.967,6.968c-3.842,0-6.967-3.126-6.967-6.968c0-2.608,1.442-4.884,3.57-6.077h6.794  C216.549,349.773,217.992,352.049,217.992,354.657z M337.447,417.112c2.871,0,5.206,2.335,5.206,5.205v31.071  c0,2.869-2.335,5.205-5.206,5.205H174.489c-2.87,0-5.205-2.336-5.205-5.205v-31.071c0-2.87,2.335-5.205,5.205-5.205H337.447z   M250.2,409.912v-110.51h11.526v110.51H250.2z M357.94,289.301c-1.694,1.871-4.018,2.901-6.542,2.901H160.607  c-2.533,0-4.862-1.036-6.557-2.917c-1.696-1.882-2.485-4.305-2.23-6.756l27.335-221.21c0.47-4.511,4.244-7.913,8.779-7.913h137.438  c4.558,0,8.334,3.42,8.791,8.021l26.019,221.077C360.431,285.016,359.635,287.43,357.94,289.301z" id="light_x5F_lamp"/></svg>